PathFileType	4	(X/Y/Z)	C:\Users\WrightLab\Desktop\Jo\P5V139.trc
DataRate	CameraRate	NumFrames	NumMarkers	Units	OrigDataRate	OrigDataStartFrame	OrigNumFrames
100.00	100.00	       26	19	mm	100.00	1	       571
Frame#	Time	Headset_Front			Headset_Back			Headset_Left			Headset_Right			Left_Shoulder			Right_Shoulder			Sternum			C7			Left Elbow			Right Elbow			Left Wrist			Right Wrist			Left ASIS			Right ASIS			S2			Left Knee			Right Knee			Left Ankle			Right Ankle			
		X1	Y1	Z1	X2	Y2	Z2	X3	Y3	Z3	X4	Y4	Z4	X5	Y5	Z5	X6	Y6	Z6	X7	Y7	Z7	X8	Y8	Z8	X9	Y9	Z9	X10	Y10	Z10	X11	Y11	Z11	X12	Y12	Z12	X13	Y13	Z13	X14	Y14	Z14	X15	Y15	Z15	X16	Y16	Z16	X17	Y17	Z17	X18	Y18	Z18	X19	Y19	Z19	

1	0.000													-136.77588	1505.22839	-1231.67749													-396.08804	1188.75793	-1102.85095				-289.65796	1080.77722	-923.93707	60.77079	914.60974	-1063.33838	-204.99715	937.75702	-1000.68036				103.53757	475.90051	-1146.27039	-268.62350	467.39362	-1021.27155				-346.57706	102.26442	-1195.50244	
2	0.010													-135.02036	1505.21155	-1230.84436													-393.78873	1188.43250	-1100.25403				-286.60352	1080.35645	-921.64813	63.67725	914.31787	-1063.30261	-201.53841	936.65619	-999.29449				106.65663	474.70285	-1147.03076	-262.47736	466.87643	-1010.55817				-344.64392	106.57520	-1192.16565	
3	0.020													-133.10625	1505.20862	-1229.24988													-390.78845	1187.66699	-1097.66724				-284.23599	1079.98938	-919.83191	67.40704	913.85309	-1064.21558	-198.56541	936.68811	-998.61719				109.42159	474.94189	-1146.73132	-256.50568	466.49838	-999.48230				-341.56818	110.33867	-1188.45642	
4	0.030													-131.30280	1505.31543	-1228.15649													-388.55539	1187.86658	-1095.23950				-281.41492	1079.93506	-917.28387	70.48548	913.71765	-1064.61340	-195.68199	936.45374	-996.14838				110.54698	474.19672	-1146.41626	-248.18088	466.47369	-987.76123				-340.21555	116.56640	-1184.52051	
5	0.040													-129.45308	1504.85706	-1225.71912													-384.91403	1187.06177	-1092.45178				-278.22610	1079.29187	-914.52087	72.28146	913.02490	-1064.37048	-191.84891	935.44269	-994.43427				114.03378	473.68222	-1147.12476	-240.56975	468.91235	-976.34668				-337.17435	121.92888	-1179.78638	
6	0.050													-127.63967	1504.98914	-1224.63855													-383.35156	1187.45850	-1090.05200				-275.26474	1078.87048	-912.46710	75.07949	913.24164	-1063.28845	-189.06023	935.75659	-993.25830				116.28926	474.22147	-1146.87512	-231.46802	471.39276	-965.51367				-333.49466	128.10629	-1175.12207	
7	0.060													-125.59216	1505.22998	-1222.84717													-380.74854	1187.33105	-1087.62927				-271.71036	1077.61328	-910.72797	78.01447	912.82910	-1064.35217	-185.40134	935.56171	-991.78229				117.70261	473.96970	-1146.84998	-224.47798	474.79745	-956.91229				-329.99609	133.45697	-1169.90259	
8	0.070													-123.78900	1505.42249	-1221.94751													-377.63019	1187.25195	-1085.06543				-269.64072	1077.37305	-907.53137	80.30427	912.55554	-1064.09045	-182.32965	936.07172	-990.18811				120.96368	474.63611	-1146.94666	-214.30836	477.50620	-945.26166				-324.43076	140.04742	-1164.30444	
9	0.080													-121.88370	1505.18140	-1219.74585													-375.73221	1188.16443	-1082.74902				-265.85339	1077.30981	-905.41559	82.12866	913.00256	-1063.54004	-179.27382	935.96027	-988.59967				122.06877	474.61191	-1146.09033	-205.31265	481.72925	-933.60767				-320.03668	145.89493	-1160.19202	
10	0.090													-119.83976	1505.94055	-1218.14172													-373.28973	1187.63269	-1080.42224				-263.66800	1077.68042	-903.30957	84.15376	913.24548	-1063.60693	-176.28915	936.28796	-986.88013				123.49202	474.80692	-1145.56433	-195.95659	484.58206	-924.36938				-316.14340	151.42638	-1155.05859	
11	0.100													-117.95119	1505.63611	-1215.56274													-370.30255	1187.44214	-1077.85339				-261.60553	1077.70129	-900.93774	86.73698	913.01605	-1062.74646	-172.99277	936.24188	-985.29602				125.54628	474.98483	-1144.57666	-185.54872	486.67450	-916.28473				-311.72195	155.64316	-1149.14355	
12	0.110													-116.20387	1505.69739	-1213.89600													-368.63101	1188.15833	-1075.51489				-257.62277	1077.38086	-899.28253	87.62051	912.74426	-1062.11414	-170.88101	936.77789	-983.20911				126.16157	474.70325	-1143.34338	-176.65263	489.93515	-907.32074				-306.66168	160.22054	-1142.76074	
13	0.120													-114.36300	1506.58398	-1212.01855													-366.58093	1188.37048	-1073.31592				-255.60173	1078.10449	-896.12378	89.10736	912.95740	-1061.81506	-167.87320	936.69000	-979.99323				129.47934	476.78812	-1143.74695	-167.50081	493.37982	-899.03662				-301.56461	164.37605	-1136.25403	
14	0.130													-112.49214	1506.29456	-1209.09167													-364.21289	1188.45129	-1070.56128				-253.89323	1078.81482	-894.46826	90.85163	912.78564	-1060.50439	-164.58415	937.18921	-977.26654				129.29968	477.38824	-1143.51147	-158.08899	496.91452	-892.28534				-295.36490	167.23396	-1127.95862	
15	0.140													-110.94318	1506.94983	-1208.21021													-362.23807	1188.78149	-1067.96008				-250.25253	1079.28955	-891.87885	93.12721	912.67908	-1060.17822	-163.28067	937.39111	-975.75403				126.70111	476.07147	-1143.39270	-148.39740	499.79907	-885.78412				-287.97092	169.48137	-1119.68860	
16	0.150													-108.98690	1507.64392	-1205.78027													-359.92856	1189.40796	-1065.19324				-248.34607	1079.73901	-888.98230	94.50728	912.78888	-1058.95056	-159.73170	937.58636	-971.88934				125.72872	475.84607	-1143.25427	-138.83592	502.49380	-878.96704				-280.45840	170.67519	-1111.20068	
17	0.160				-46.46167	66.69167	-1241.52905							-107.14005	1507.39453	-1202.83911													-357.51169	1189.64807	-1062.54602				-246.41551	1080.48169	-887.24927	95.50658	912.81726	-1058.24158	-157.45633	938.46069	-969.07367				124.59650	475.30905	-1142.83130	-129.45876	506.57642	-873.51141				-272.95685	171.70776	-1102.76819	
18	0.170				-47.43960	66.94097	-1240.25073							-105.31457	1508.26855	-1200.91675													-355.73386	1190.15503	-1059.75989				-242.63419	1080.39856	-884.85785	96.94128	912.38080	-1056.72278	-155.83481	938.85815	-965.85303				123.36535	475.33231	-1142.22534	-119.65530	509.17752	-867.29517				-266.66016	172.61998	-1093.66748	
19	0.180				-47.88955	65.78915	-1242.95667							-103.57665	1508.60364	-1199.21252													-353.99561	1190.50049	-1056.85620				-240.61736	1081.25818	-883.07751	98.95982	912.75592	-1056.00879	-151.81871	939.13739	-961.87299				122.18110	475.39224	-1140.45068	-109.60699	512.39349	-862.02588				-257.61462	172.78825	-1085.05896	
20	0.190				-47.43960	66.94097	-1240.25073							-101.54159	1508.91394	-1196.05286													-351.09589	1191.31116	-1053.59985				-237.77846	1081.71460	-879.77960	100.62223	912.89783	-1053.88123	-150.23552	939.33356	-958.89789				120.97646	475.28867	-1139.50024	-100.55420	515.18188	-857.86658				-248.66504	171.82419	-1076.03076	
21	0.200				-47.43960	66.94097	-1240.25073							-99.56747	1509.17908	-1193.00659													-349.29559	1191.84399	-1050.67737				-235.76259	1081.83264	-877.09357	100.73343	912.67969	-1053.28137	-147.36409	940.01099	-955.82056				118.62553	474.99017	-1138.10388	-90.58678	518.63599	-852.61133				-239.60191	170.20259	-1065.75684	
22	0.210				-47.43960	66.94097	-1240.25073							-97.60094	1509.61401	-1190.54053													-347.55502	1191.96716	-1047.70935				-233.14706	1082.33606	-874.79437	103.04348	912.94171	-1052.03381	-144.71352	940.36316	-951.67719				116.84203	474.54645	-1136.00903	-81.27850	521.45593	-848.92975				-229.46204	169.71640	-1056.59692	
23	0.220	84.33938	1560.05872	-871.61566	-48.13777	66.91861	-1240.87524							-95.62206	1509.73303	-1187.23987										206.15097	1162.21301	-1071.41162	-345.30917	1192.66931	-1043.90662	189.88837	1209.92212	-1278.94666	-231.78453	1082.48315	-871.40125	103.81909	912.71362	-1051.56580	-142.51959	940.12860	-948.70825	-100.29659	957.52570	-1284.21704	116.34456	474.75543	-1133.89172	-72.06975	523.31207	-845.92456				-219.20468	168.19258	-1046.66187	
24	0.230	-96.55826	1617.90845	-896.18915	-47.60927	67.95032	-1240.22522							-93.87247	1510.08899	-1185.32031	-191.44995	1107.35388	-794.98700							206.79735	1162.42175	-1068.69885	-342.71271	1192.44727	-1041.05090	-57.33716	1041.31677	-832.28479	-227.93613	1082.40039	-868.93115	106.52001	913.07031	-1050.26025	-140.19371	940.94647	-945.19397	-99.82545	957.77814	-1281.18420	115.94928	475.28857	-1132.98389	-62.58073	525.79346	-842.87769	-153.37872	1048.46753	-747.74017	-209.71332	165.16426	-1037.08972	
25	0.240				-47.70653	69.24065	-1238.89307							-91.89348	1510.41858	-1182.49036													-341.51074	1193.70105	-1037.93835				-225.54912	1083.10449	-865.57666	107.57508	913.20422	-1049.58521	-137.35068	940.48517	-941.74609	-99.20036	958.29449	-1278.55249	113.37554	474.65747	-1130.63623	-54.31953	528.01581	-840.09210				-198.72154	162.05087	-1027.09424	
26	0.250	90.92785	1560.91833	-863.26837	-47.60927	67.95032	-1240.22522							-89.87702	1510.56396	-1179.30310										195.67183	1210.49963	-1272.59070	-339.06390	1193.49512	-1034.12537	212.91498	1163.26257	-1064.70374	-223.84558	1083.16431	-863.10461	109.67266	913.21881	-1048.28796	-134.64236	940.96899	-938.51416	-98.50224	959.16132	-1275.98279	113.29454	474.85892	-1128.82532	-45.37584	530.27661	-837.90222				-188.54825	159.05170	-1015.95532	
